<svg width="658.3px" height="121.4px" xmlns="http://www.w3.org/2000/svg" viewBox="-79.13247070312497 14.297509765625001 658.2649414062499 121.40498046875" style="background: rgba(0, 0, 0, 0)" preserveAspectRatio="xMidYMid"><defs><linearGradient id="editing-sticker-gradient" x1="0.5157007868728831" y1="0.20041113957362788" x2="0.48429921312711693" y2="0.7995888604263721"><stop offset="0" stop-color="#feb422"></stop><stop offset="1" stop-color="#31baff"></stop></linearGradient><filter id="editing-sticker" x="-100%" y="-100%" width="300%" height="300%"><feMorphology operator="erode" radius="1" in="SourceAlpha" result="alpha-erode"></feMorphology><feConvolveMatrix order="3,3" divisor="1" kernelMatrix="0 1 0 1 1 1 0 1 0" in="alpha-erode" result="alpha-round"></feConvolveMatrix><feMorphology operator="dilate" radius="3.5" in="alpha-round" result="dilate-shadow"></feMorphology><feGaussianBlur in="dilate-shadow" stdDeviation="1.5" result="shadow"></feGaussianBlur><feFlood flood-color="#fff" result="flood-sticker"></feFlood><feComposite operator="in" in="flood-sticker" in2="alpha-round" result="comp-sticker"></feComposite><feMorphology operator="dilate" radius="3" in="comp-sticker" result="morph-sticker"></feMorphology><feConvolveMatrix order="3,3" divisor="1" kernelMatrix="0 1 0 1 1 1 0 1 0" in="morph-sticker" result="sticker"></feConvolveMatrix><feMerge><feMergeNode in="shadow"></feMergeNode><feMergeNode in="sticker"></feMergeNode><feMergeNode in="SourceGraphic"></feMergeNode></feMerge></filter></defs><style>    text {
  font-size: 64px;
  font-family: Arial Black;
  dominant-baseline: central;
  text-anchor: middle;
}</style><g>    <g transform="matrix(1.1,0,0,1,-23.6,0)">
        <g filter="url(#editing-sticker)">
                <g transform="matrix(1.2,0,0,1.8,-31.3,215.7)">
                    <path stroke-width="3" fill="url(#editing-sticker-gradient)" stroke="#0b0000" d="M 6.4 -63.1 L -7.6 -63.1 L 0.6 -105.4 L 14.6 -105.4 L 6.4 -63.1 Z M 62.1 -61.8 L 62.1 -61.8 L 62.1 -61.8 Q 54.4 -61.8 54.4 -67.9 L 54.4 -67.9 L 54.4 -67.9 Q 54.4 -70.5 55.5 -75.6 L 55.5 -75.6 L 55.5 -75.6 Q 56.6 -80.7 57 -82.7 L 57 -82.7 L 57 -82.7 Q 57.9 -87.4 57.9 -88.9 L 57.9 -88.9 L 57.9 -88.9 Q 57.9 -92.1 55.5 -92.1 L 55.5 -92.1 L 55.5 -92.1 Q 53.9 -92.1 52.3 -89.9 L 52.3 -89.9 L 52.3 -89.9 Q 50.8 -87.7 50.1 -83.3 L 50.1 -83.3 L 46.1 -63.1 L 33.6 -61.8 L 37.1 -79.3 L 37.1 -79.3 Q 37.7 -82.1 38.2 -85.4 L 38.2 -85.4 L 38.2 -85.4 Q 38.7 -88.7 38.7 -89.2 L 38.7 -89.2 L 38.7 -89.2 Q 38.7 -92.1 36.5 -92.1 L 36.5 -92.1 L 36.5 -92.1 Q 35.1 -92.1 33.5 -89.9 L 33.5 -89.9 L 33.5 -89.9 Q 31.9 -87.8 31 -83.3 L 31 -83.3 L 27.1 -63.1 L 14.4 -61.8 L 21.2 -95.8 L 31.6 -97 L 30.5 -90.6 L 30.5 -90.6 Q 32.2 -94 35.2 -95.5 L 35.2 -95.5 L 35.2 -95.5 Q 38.3 -97 43.1 -97 L 43.1 -97 L 43.1 -97 Q 45.9 -97 47.7 -95.7 L 47.7 -95.7 L 47.7 -95.7 Q 49.5 -94.4 50 -92.2 L 50 -92.2 L 50 -92.2 Q 51.1 -94.4 53.9 -95.7 L 53.9 -95.7 L 53.9 -95.7 Q 56.7 -97 60.1 -97 L 60.1 -97 L 60.1 -97 Q 63.5 -97 65.2 -96.3 L 65.2 -96.3 L 65.2 -96.3 Q 66.9 -95.6 67.9 -94.4 L 67.9 -94.4 L 67.9 -94.4 Q 69.7 -92.1 69.7 -88 L 69.7 -88 L 69.7 -88 Q 69.7 -84 67.9 -75.6 L 67.9 -75.6 L 67.9 -75.6 Q 67.1 -71.5 67.1 -70 L 67.1 -70 L 67.1 -70 Q 67.1 -68.5 67.9 -67.6 L 67.9 -67.6 L 67.9 -67.6 Q 68.8 -66.7 70.1 -66.6 L 70.1 -66.6 L 70.1 -66.6 Q 69.4 -64.4 67.2 -63.1 L 67.2 -63.1 L 67.2 -63.1 Q 65 -61.8 62.1 -61.8 Z M 77.8 -65 L 77.8 -65 L 77.8 -65 Q 76.3 -66.7 75.6 -69.3 L 75.6 -69.3 L 75.6 -69.3 Q 74.9 -72 74.9 -76.2 L 74.9 -76.2 L 74.9 -76.2 Q 74.9 -80.5 76.4 -84.4 L 76.4 -84.4 L 76.4 -84.4 Q 77.9 -88.3 80.6 -91.2 L 80.6 -91.2 L 80.6 -91.2 Q 86.1 -97 95.1 -97 L 95.1 -97 L 95.1 -97 Q 98.4 -97 100.8 -96 L 100.8 -96 L 111.7 -97 L 107 -72.1 L 107 -72.1 Q 106.8 -71.3 106.8 -69.9 L 106.8 -69.9 L 106.8 -69.9 Q 106.8 -68.5 107.7 -67.6 L 107.7 -67.6 L 107.7 -67.6 Q 108.5 -66.7 109.8 -66.6 L 109.8 -66.6 L 109.8 -66.6 Q 109.2 -64.4 106.8 -63.1 L 106.8 -63.1 L 106.8 -63.1 Q 104.5 -61.8 101.9 -61.8 L 101.9 -61.8 L 101.9 -61.8 Q 99.2 -61.8 97.5 -62.8 L 97.5 -62.8 L 97.5 -62.8 Q 95.7 -63.8 95.2 -65.5 L 95.2 -65.5 L 95.2 -65.5 Q 94.2 -63.9 92 -62.9 L 92 -62.9 L 92 -62.9 Q 89.8 -61.8 86.9 -61.8 L 86.9 -61.8 L 86.9 -61.8 Q 84 -61.8 81.6 -62.6 L 81.6 -62.6 L 81.6 -62.6 Q 79.3 -63.4 77.8 -65 Z M 91.3 -91 L 91.3 -91 L 91.3 -91 Q 90.5 -89.9 89.9 -87.9 L 89.9 -87.9 L 89.9 -87.9 Q 89.3 -86 88.2 -80.8 L 88.2 -80.8 L 88.2 -80.8 Q 87.1 -75.5 87.1 -71.8 L 87.1 -71.8 L 87.1 -71.8 Q 87.1 -68.1 87.7 -67 L 87.7 -67 L 87.7 -67 Q 88.3 -65.9 89.3 -65.9 L 89.3 -65.9 L 89.3 -65.9 Q 91.4 -65.9 92.9 -67.9 L 92.9 -67.9 L 92.9 -67.9 Q 94.4 -69.8 95 -73.3 L 95 -73.3 L 98.3 -92.1 L 98.3 -92.1 Q 97 -93.2 95.4 -93.2 L 95.4 -93.2 L 95.4 -93.2 Q 93.9 -93.2 92.9 -92.7 L 92.9 -92.7 L 92.9 -92.7 Q 92 -92.2 91.3 -91 Z M 119.5 -89.9 L 119.5 -89.9 L 119.5 -89.9 Q 121.6 -92.9 124.9 -95 L 124.9 -95 L 124.9 -95 Q 128.2 -97 132.3 -97 L 132.3 -97 L 132.3 -97 Q 136.3 -97 138.2 -95.8 L 138.2 -95.8 L 150.8 -97 L 146.4 -72.5 L 146.4 -72.5 Q 144.2 -59.9 139.4 -55 L 139.4 -55 L 139.4 -55 Q 134.9 -50.3 126.1 -50.3 L 126.1 -50.3 L 126.1 -50.3 Q 119.3 -50.3 115.5 -52.4 L 115.5 -52.4 L 115.5 -52.4 Q 111.7 -54.5 111.7 -58.1 L 111.7 -58.1 L 111.7 -58.1 Q 111.7 -60.7 113.6 -62.2 L 113.6 -62.2 L 113.6 -62.2 Q 115.6 -63.7 118.7 -63.7 L 118.7 -63.7 L 118.7 -63.7 Q 121.4 -63.7 123.4 -62.5 L 123.4 -62.5 L 123.4 -62.5 Q 124.7 -61.8 125.2 -60.9 L 125.2 -60.9 L 125.2 -60.9 Q 123.8 -59.7 123.8 -57.6 L 123.8 -57.6 L 123.8 -57.6 Q 123.8 -54.8 126.3 -54.8 L 126.3 -54.8 L 126.3 -54.8 Q 130.6 -54.8 133 -64.9 L 133 -64.9 L 133 -64.9 Q 133.7 -67.7 134.3 -70.4 L 134.3 -70.4 L 134.3 -70.4 Q 131.4 -66.9 124.9 -66.9 L 124.9 -66.9 L 124.9 -66.9 Q 120.4 -66.9 117.7 -69.1 L 117.7 -69.1 L 117.7 -69.1 Q 115.1 -71.3 115.1 -76.4 L 115.1 -76.4 L 115.1 -76.4 Q 115.1 -79.6 116.2 -83.2 L 116.2 -83.2 L 116.2 -83.2 Q 117.3 -86.8 119.5 -89.9 Z M 127.8 -76.2 L 127.8 -76.2 L 127.8 -76.2 Q 127.8 -71.8 130 -71.8 L 130 -71.8 L 130 -71.8 Q 131.6 -71.8 133 -73.5 L 133 -73.5 L 133 -73.5 Q 134.2 -74.8 134.6 -76.8 L 134.6 -76.8 L 137.9 -93.3 L 137.9 -93.3 Q 137.6 -93.3 137.3 -93.5 L 137.3 -93.5 L 137.3 -93.5 Q 136.6 -93.7 135.8 -93.7 L 135.8 -93.7 L 135.8 -93.7 Q 131.9 -93.7 129.6 -87.3 L 129.6 -87.3 L 129.6 -87.3 Q 127.8 -82.3 127.8 -76.2 Z M 179.2 -73.9 L 179.2 -73.9 L 179.2 -73.9 Q 180.8 -72.9 180.8 -70.5 L 180.8 -70.5 L 180.8 -70.5 Q 180.8 -68.1 179.6 -66.5 L 179.6 -66.5 L 179.6 -66.5 Q 178.3 -65 176.4 -64 L 176.4 -64 L 176.4 -64 Q 172.3 -61.8 167.9 -61.8 L 167.9 -61.8 L 167.9 -61.8 Q 163.4 -61.8 160.8 -62.8 L 160.8 -62.8 L 160.8 -62.8 Q 158.3 -63.8 156.5 -65.6 L 156.5 -65.6 L 156.5 -65.6 Q 153.1 -68.9 153.1 -75.2 L 153.1 -75.2 L 153.1 -75.2 Q 153.1 -84.8 158.4 -90.7 L 158.4 -90.7 L 158.4 -90.7 Q 164 -97 173.8 -97 L 173.8 -97 L 173.8 -97 Q 179.9 -97 182.9 -94.5 L 182.9 -94.5 L 182.9 -94.5 Q 185.1 -92.6 185.1 -89.4 L 185.1 -89.4 L 185.1 -89.4 Q 185.1 -78.2 165.7 -78.2 L 165.7 -78.2 L 165.7 -78.2 Q 165.4 -76.5 165.4 -75.1 L 165.4 -75.1 L 165.4 -75.1 Q 165.4 -72.1 166.7 -71 L 166.7 -71 L 166.7 -71 Q 168 -69.9 170.5 -69.9 L 170.5 -69.9 L 170.5 -69.9 Q 172.9 -69.9 175.5 -71 L 175.5 -71 L 175.5 -71 Q 178.1 -72.1 179.2 -73.9 Z M 166.1 -80.9 L 166.1 -80.9 L 166.1 -80.9 Q 170.7 -80.9 173.3 -83.7 L 173.3 -83.7 L 173.3 -83.7 Q 175.9 -86.4 175.9 -90.7 L 175.9 -90.7 L 175.9 -90.7 Q 175.9 -92.2 175.4 -93 L 175.4 -93 L 175.4 -93 Q 174.8 -93.8 173.7 -93.8 L 173.7 -93.8 L 173.7 -93.8 Q 172.7 -93.8 171.7 -93.4 L 171.7 -93.4 L 171.7 -93.4 Q 170.8 -92.9 169.8 -91.5 L 169.8 -91.5 L 169.8 -91.5 Q 167.5 -88.3 166.1 -80.9 Z M 206.4 -85.6 L 206.4 -85.6 L 206.4 -85.6 Q 207.3 -88 207.3 -90 L 207.3 -90 L 207.3 -90 Q 207.3 -93.8 204.3 -93.8 L 204.3 -93.8 L 204.3 -93.8 Q 202.7 -93.8 201.4 -92.3 L 201.4 -92.3 L 201.4 -92.3 Q 200 -90.9 200 -89.1 L 200 -89.1 L 200 -89.1 Q 200 -87.8 201.1 -86.8 L 201.1 -86.8 L 201.1 -86.8 Q 202.5 -85.4 206.3 -83.1 L 206.3 -83.1 L 206.3 -83.1 Q 210.1 -80.8 211.5 -78.9 L 211.5 -78.9 L 211.5 -78.9 Q 213 -77 213 -74.4 L 213 -74.4 L 213 -74.4 Q 213 -71.8 211.7 -69.5 L 211.7 -69.5 L 211.7 -69.5 Q 210.5 -67.1 208.2 -65.4 L 208.2 -65.4 L 208.2 -65.4 Q 203.4 -61.8 195.8 -61.8 L 195.8 -61.8 L 195.8 -61.8 Q 191.6 -61.8 188.4 -64 L 188.4 -64 L 188.4 -64 Q 185.2 -66.1 185.2 -68.6 L 185.2 -68.6 L 185.2 -68.6 Q 185.2 -71.1 187 -72.6 L 187 -72.6 L 187 -72.6 Q 188.8 -74.1 191.5 -74.1 L 191.5 -74.1 L 191.5 -74.1 Q 194.2 -74.1 195.9 -73 L 195.9 -73 L 195.9 -73 Q 195.1 -70.9 195.1 -69.5 L 195.1 -69.5 L 195.1 -69.5 Q 195.1 -65.3 198.6 -65.3 L 198.6 -65.3 L 198.6 -65.3 Q 200.2 -65.3 201.2 -66.3 L 201.2 -66.3 L 201.2 -66.3 Q 202.2 -67.2 202.2 -68.9 L 202.2 -68.9 L 202.2 -68.9 Q 202.2 -72.1 196.7 -75.6 L 196.7 -75.6 L 196.7 -75.6 Q 192.2 -78.5 191.2 -79.7 L 191.2 -79.7 L 191.2 -79.7 Q 189.5 -81.7 189.5 -84.3 L 189.5 -84.3 L 189.5 -84.3 Q 189.5 -86.9 190.7 -89.3 L 190.7 -89.3 L 190.7 -89.3 Q 191.9 -91.7 194.2 -93.5 L 194.2 -93.5 L 194.2 -93.5 Q 198.8 -97 207 -97 L 207 -97 L 207 -97 Q 211.1 -97 213.6 -95.4 L 213.6 -95.4 L 213.6 -95.4 Q 216 -93.7 216 -90.9 L 216 -90.9 L 216 -90.9 Q 216 -88.1 214.3 -86.5 L 214.3 -86.5 L 214.3 -86.5 Q 212.7 -84.9 209.6 -84.9 L 209.6 -84.9 L 209.6 -84.9 Q 207.5 -84.9 206.4 -85.6 Z M 257.5 -83.7 L 270.4 -84.9 L 270.4 -84.9 Q 265.8 -74.8 265.8 -63.1 L 265.8 -63.1 L 265.8 -63.1 Q 264.1 -61.8 261.6 -61.8 L 261.6 -61.8 L 261.6 -61.8 Q 259.1 -61.8 257.5 -63 L 257.5 -63 L 257.5 -63 Q 255.9 -64.2 255.5 -65.4 L 255.5 -65.4 L 255.5 -65.4 Q 253.9 -63.8 251.3 -62.8 L 251.3 -62.8 L 251.3 -62.8 Q 248.7 -61.8 246 -61.8 L 246 -61.8 L 246 -61.8 Q 243.2 -61.8 240.8 -62.7 L 240.8 -62.7 L 240.8 -62.7 Q 238.4 -63.6 236.6 -65.6 L 236.6 -65.6 L 236.6 -65.6 Q 232.5 -70 232.5 -78.2 L 232.5 -78.2 L 232.5 -78.2 Q 232.5 -91 239.3 -98.7 L 239.3 -98.7 L 239.3 -98.7 Q 246.4 -106.6 258.9 -106.6 L 258.9 -106.6 L 258.9 -106.6 Q 267.5 -106.6 270.6 -102.2 L 270.6 -102.2 L 270.6 -102.2 Q 271.5 -100.8 271.5 -99.1 L 271.5 -99.1 L 271.5 -99.1 Q 271.5 -97.4 270.8 -95.9 L 270.8 -95.9 L 270.8 -95.9 Q 270.1 -94.5 268.9 -93.3 L 268.9 -93.3 L 268.9 -93.3 Q 266.2 -90.8 262.8 -90.8 L 262.8 -90.8 L 262.8 -90.8 Q 261.4 -90.8 260.1 -91.2 L 260.1 -91.2 L 260.1 -91.2 Q 260.4 -93.1 260.4 -95.4 L 260.4 -95.4 L 260.4 -95.4 Q 260.4 -97.6 260.2 -98.6 L 260.2 -98.6 L 260.2 -98.6 Q 260.1 -99.7 259.7 -100.5 L 259.7 -100.5 L 259.7 -100.5 Q 258.9 -102.2 257 -102.2 L 257 -102.2 L 257 -102.2 Q 255.2 -102.2 253.2 -100.3 L 253.2 -100.3 L 253.2 -100.3 Q 251.2 -98.3 249.6 -95.1 L 249.6 -95.1 L 249.6 -95.1 Q 246.1 -88 246.1 -79.3 L 246.1 -79.3 L 246.1 -79.3 Q 246.1 -75.3 247.6 -72.5 L 247.6 -72.5 L 247.6 -72.5 Q 249.3 -69.5 252.2 -69.5 L 252.2 -69.5 L 252.2 -69.5 Q 253.2 -69.5 254.2 -70 L 254.2 -70 L 254.2 -70 Q 255.1 -70.5 255.5 -70.9 L 255.5 -70.9 L 257.5 -83.7 Z M 276.4 -65 L 276.4 -65 L 276.4 -65 Q 274.9 -66.7 274.2 -69.3 L 274.2 -69.3 L 274.2 -69.3 Q 273.5 -72 273.5 -76.2 L 273.5 -76.2 L 273.5 -76.2 Q 273.5 -80.5 275 -84.4 L 275 -84.4 L 275 -84.4 Q 276.5 -88.3 279.1 -91.2 L 279.1 -91.2 L 279.1 -91.2 Q 284.7 -97 293.7 -97 L 293.7 -97 L 293.7 -97 Q 297 -97 299.4 -96 L 299.4 -96 L 310.3 -97 L 305.6 -72.1 L 305.6 -72.1 Q 305.4 -71.3 305.4 -69.9 L 305.4 -69.9 L 305.4 -69.9 Q 305.4 -68.5 306.3 -67.6 L 306.3 -67.6 L 306.3 -67.6 Q 307.1 -66.7 308.4 -66.6 L 308.4 -66.6 L 308.4 -66.6 Q 307.8 -64.4 305.4 -63.1 L 305.4 -63.1 L 305.4 -63.1 Q 303.1 -61.8 300.5 -61.8 L 300.5 -61.8 L 300.5 -61.8 Q 297.8 -61.8 296.1 -62.8 L 296.1 -62.8 L 296.1 -62.8 Q 294.3 -63.8 293.8 -65.5 L 293.8 -65.5 L 293.8 -65.5 Q 292.8 -63.9 290.6 -62.9 L 290.6 -62.9 L 290.6 -62.9 Q 288.4 -61.8 285.5 -61.8 L 285.5 -61.8 L 285.5 -61.8 Q 282.6 -61.8 280.2 -62.6 L 280.2 -62.6 L 280.2 -62.6 Q 277.9 -63.4 276.4 -65 Z M 289.9 -91 L 289.9 -91 L 289.9 -91 Q 289.1 -89.9 288.5 -87.9 L 288.5 -87.9 L 288.5 -87.9 Q 287.9 -86 286.8 -80.8 L 286.8 -80.8 L 286.8 -80.8 Q 285.7 -75.5 285.7 -71.8 L 285.7 -71.8 L 285.7 -71.8 Q 285.7 -68.1 286.3 -67 L 286.3 -67 L 286.3 -67 Q 286.9 -65.9 287.9 -65.9 L 287.9 -65.9 L 287.9 -65.9 Q 290 -65.9 291.5 -67.9 L 291.5 -67.9 L 291.5 -67.9 Q 293 -69.8 293.5 -73.3 L 293.5 -73.3 L 296.9 -92.1 L 296.9 -92.1 Q 295.6 -93.2 294 -93.2 L 294 -93.2 L 294 -93.2 Q 292.5 -93.2 291.5 -92.7 L 291.5 -92.7 L 291.5 -92.7 Q 290.6 -92.2 289.9 -91 Z M 329.1 -66.6 L 329.1 -66.6 L 329.1 -66.6 Q 327.1 -61.8 320.7 -61.8 L 320.7 -61.8 L 320.7 -61.8 Q 317.5 -61.8 315.5 -64.1 L 315.5 -64.1 L 315.5 -64.1 Q 313.8 -65.9 313.8 -68.1 L 313.8 -68.1 L 313.8 -68.1 Q 313.8 -72.9 316.1 -83.3 L 316.1 -83.3 L 320.7 -107.9 L 333.7 -109.2 L 327.5 -76.8 L 327.5 -76.8 Q 326.4 -72.1 326.4 -70.4 L 326.4 -70.4 L 326.4 -70.4 Q 326.4 -66.8 329.1 -66.6 Z M 349.8 -66.6 L 349.8 -66.6 L 349.8 -66.6 Q 347.8 -61.8 341.5 -61.8 L 341.5 -61.8 L 341.5 -61.8 Q 338.3 -61.8 336.2 -64.1 L 336.2 -64.1 L 336.2 -64.1 Q 334.6 -65.9 334.6 -68.1 L 334.6 -68.1 L 334.6 -68.1 Q 334.6 -72.9 336.8 -83.3 L 336.8 -83.3 L 341.5 -107.9 L 354.5 -109.2 L 348.3 -76.8 L 348.3 -76.8 Q 347.2 -72.1 347.2 -70.4 L 347.2 -70.4 L 347.2 -70.4 Q 347.2 -66.8 349.8 -66.6 Z M 381.2 -73.9 L 381.2 -73.9 L 381.2 -73.9 Q 382.8 -72.9 382.8 -70.5 L 382.8 -70.5 L 382.8 -70.5 Q 382.8 -68.1 381.5 -66.5 L 381.5 -66.5 L 381.5 -66.5 Q 380.3 -65 378.3 -64 L 378.3 -64 L 378.3 -64 Q 374.3 -61.8 369.8 -61.8 L 369.8 -61.8 L 369.8 -61.8 Q 365.4 -61.8 362.8 -62.8 L 362.8 -62.8 L 362.8 -62.8 Q 360.2 -63.8 358.5 -65.6 L 358.5 -65.6 L 358.5 -65.6 Q 355.1 -68.9 355.1 -75.2 L 355.1 -75.2 L 355.1 -75.2 Q 355.1 -84.8 360.4 -90.7 L 360.4 -90.7 L 360.4 -90.7 Q 366 -97 375.8 -97 L 375.8 -97 L 375.8 -97 Q 381.9 -97 384.9 -94.5 L 384.9 -94.5 L 384.9 -94.5 Q 387.1 -92.6 387.1 -89.4 L 387.1 -89.4 L 387.1 -89.4 Q 387.1 -78.2 367.7 -78.2 L 367.7 -78.2 L 367.7 -78.2 Q 367.4 -76.5 367.4 -75.1 L 367.4 -75.1 L 367.4 -75.1 Q 367.4 -72.1 368.7 -71 L 368.7 -71 L 368.7 -71 Q 370 -69.9 372.5 -69.9 L 372.5 -69.9 L 372.5 -69.9 Q 374.9 -69.9 377.5 -71 L 377.5 -71 L 377.5 -71 Q 380.1 -72.1 381.2 -73.9 Z M 368.1 -80.9 L 368.1 -80.9 L 368.1 -80.9 Q 372.7 -80.9 375.3 -83.7 L 375.3 -83.7 L 375.3 -83.7 Q 377.9 -86.4 377.9 -90.7 L 377.9 -90.7 L 377.9 -90.7 Q 377.9 -92.2 377.4 -93 L 377.4 -93 L 377.4 -93 Q 376.8 -93.8 375.7 -93.8 L 375.7 -93.8 L 375.7 -93.8 Q 374.6 -93.8 373.7 -93.4 L 373.7 -93.4 L 373.7 -93.4 Q 372.8 -92.9 371.8 -91.5 L 371.8 -91.5 L 371.8 -91.5 Q 369.5 -88.3 368.1 -80.9 Z M 409.3 -81.1 L 409.3 -81.1 L 409.3 -81.1 Q 411.6 -85.2 411.6 -89.4 L 411.6 -89.4 L 411.6 -89.4 Q 411.6 -92.1 409.6 -92.1 L 409.6 -92.1 L 409.6 -92.1 Q 408.1 -92.1 406.5 -89.5 L 406.5 -89.5 L 406.5 -89.5 Q 404.8 -86.9 404.3 -83.5 L 404.3 -83.5 L 401 -63.1 L 387.8 -61.8 L 394.3 -95.8 L 404.8 -97 L 403.7 -90.6 L 403.7 -90.6 Q 406.8 -97 413.9 -97 L 413.9 -97 L 413.9 -97 Q 417.6 -97 419.6 -95.1 L 419.6 -95.1 L 419.6 -95.1 Q 421.6 -93.2 421.6 -89.3 L 421.6 -89.3 L 421.6 -89.3 Q 421.6 -85.3 419 -82.8 L 419 -82.8 L 419 -82.8 Q 416.4 -80.3 412 -80.3 L 412 -80.3 L 412 -80.3 Q 410.1 -80.3 409.3 -81.1 Z M 443 -70.4 L 443 -70.4 L 443 -70.4 Q 439.7 -66.9 433.6 -66.9 L 433.6 -66.9 L 433.6 -66.9 Q 426 -66.9 424.4 -72.5 L 424.4 -72.5 L 424.4 -72.5 Q 423.9 -74.1 423.9 -76 L 423.9 -76 L 423.9 -76 Q 423.9 -77.8 424.2 -79.8 L 424.2 -79.8 L 427.2 -95.8 L 440.2 -97 L 436.7 -78.4 L 436.7 -78.4 Q 436.6 -77.6 436.4 -76.7 L 436.4 -76.7 L 436.4 -76.7 Q 436.2 -75.8 436.2 -74.9 L 436.2 -74.9 L 436.2 -74.9 Q 436.2 -73.9 436.5 -73.3 L 436.5 -73.3 L 436.5 -73.3 Q 436.8 -72.7 437.3 -72.3 L 437.3 -72.3 L 437.3 -72.3 Q 438.1 -71.8 439.4 -71.8 L 439.4 -71.8 L 439.4 -71.8 Q 440.8 -71.8 442 -73.5 L 442 -73.5 L 442 -73.5 Q 443.2 -75.2 443.8 -78 L 443.8 -78 L 447.3 -95.8 L 459.9 -97 L 455.1 -71.9 L 455.1 -71.9 Q 452.7 -59.6 447.9 -54.7 L 447.9 -54.7 L 447.9 -54.7 Q 445.4 -52.2 442.1 -51.3 L 442.1 -51.3 L 442.1 -51.3 Q 438.9 -50.3 434.7 -50.3 L 434.7 -50.3 L 434.7 -50.3 Q 428 -50.3 424.2 -52.4 L 424.2 -52.4 L 424.2 -52.4 Q 420.3 -54.5 420.3 -58 L 420.3 -58 L 420.3 -58 Q 420.3 -60.6 422.3 -62.1 L 422.3 -62.1 L 422.3 -62.1 Q 424.3 -63.6 427.4 -63.6 L 427.4 -63.6 L 427.4 -63.6 Q 430.1 -63.6 432.1 -62.5 L 432.1 -62.5 L 432.1 -62.5 Q 433.3 -61.8 433.9 -60.9 L 433.9 -60.9 L 433.9 -60.9 Q 432.4 -59.6 432.4 -57.5 L 432.4 -57.5 L 432.4 -57.5 Q 432.4 -54.7 435 -54.7 L 435 -54.7 L 435 -54.7 Q 439.2 -54.7 441.6 -64.4 L 441.6 -64.4 L 441.6 -64.4 Q 442.3 -67.3 443 -70.4 Z">
                    </path>
                </g>
            </g>
    </g></g>
</svg>